<svg xmlns="http://www.w3.org/2000/svg" viewBox="0 0 71 53.93"><defs><style>.cls-1,.cls-2{fill:#fff;}.cls-2,.cls-3{stroke:#000;stroke-miterlimit:10;}.cls-2{stroke-width:2px;}</style></defs><g id="Layer_2" data-name="Layer 2"><g id="Layer_1-2" data-name="Layer 1"><path class="cls-1" d="M2.18,48C1.54,48,1,47.26,1,46.38V2.62C1,1.74,1.54,1,2.18,1H44.82C45.46,1,46,1.74,46,2.62V46.38c0,.88-.54,1.62-1.18,1.62Z"/><path d="M44.78,2a.85.85,0,0,1,.22.62V46.38a.85.85,0,0,1-.22.62H2.22A.85.85,0,0,1,2,46.38V2.62A.85.85,0,0,1,2.22,2H44.78m0-2H2.18A2.43,2.43,0,0,0,0,2.62V46.38A2.43,2.43,0,0,0,2.18,49H44.82A2.43,2.43,0,0,0,47,46.38V2.62A2.43,2.43,0,0,0,44.82,0Z"/><line class="cls-2" x1="47" y1="11.95" y2="11.95"/><rect class="cls-3" x="7.51" y="18.07" width="5.12" height="5.12"/><rect class="cls-3" x="7.51" y="27.61" width="5.12" height="5.12"/><rect class="cls-3" x="7.51" y="37.15" width="5.12" height="5.12"/><rect class="cls-3" x="16.05" y="18.07" width="5.12" height="5.12"/><rect class="cls-3" x="16.05" y="27.61" width="5.12" height="5.12"/><rect class="cls-3" x="16.05" y="37.15" width="5.12" height="5.12"/><rect class="cls-3" x="24.59" y="18.07" width="5.12" height="5.12"/><rect class="cls-3" x="24.59" y="27.61" width="5.12" height="5.12"/><rect class="cls-3" x="24.59" y="37.15" width="5.12" height="5.12"/><rect class="cls-3" x="33.12" y="18.07" width="5.12" height="5.12"/><rect class="cls-3" x="33.12" y="27.61" width="5.12" height="5.12"/><rect class="cls-3" x="33.12" y="37.15" width="5.12" height="5.12"/><rect x="0.9" y="1" width="45.13" height="10"/><circle class="cls-2" cx="52.07" cy="35" r="17.93"/><polyline class="cls-2" points="46.52 29.45 52.07 35 65.88 35"/></g></g></svg>